# xmcd
#
# Track frame offsets:
#	150
#	22370
#	40522
#	66064
#	88632
#	109143
#	133757
#	147552
#	174029
#	182262
#	193557
#	204323
#	221541
#	248047
#	258433
#	284395
#	311908
#	326077
#
# Disc length: 4546 seconds
#
# Revision: 0
# Processed by: cddbd v1.5.1PL0 Copyright (c) Steve Scherf et al.
# Submitted via: audiograbber 1.83.01
#
DISCID=0911c012
DTITLE=Jeff Beck - Blue Wind - Zounds Guitar Heroes
DYEAR=2000
DGENRE=Acoustic
TTITLE0=Behind the Veil
TTITLE1=Led Boots
TTITLE2=Scatterbrain
TTITLE3=Freeway Jam
TTITLE4=She´s a Woman
TTITLE5=Situation
TTITLE6=Jeff´s Boogie
TTITLE7=New Ways Train Train
TTITLE8=Psycho Daisies
TTITLE9=Heart full of Soul
TTITLE10=Over under sideways down
TTITLE11=Black Cat Moan(Studio Version)
TTITLE12=Blue Wind
TTITLE13=Sleep Walk
TTITLE14=Cause we´ve ended as Lovers
TTITLE15=Gets us all in the End
TTITLE16=Sling Shot
TTITLE17=Where were You
EXTD=
EXTT0=
EXTT1=
EXTT2=
EXTT3=
EXTT4=
EXTT5=
EXTT6=
EXTT7=
EXTT8=
EXTT9=
EXTT10=
EXTT11=
EXTT12=
EXTT13=
EXTT14=
EXTT15=
EXTT16=
EXTT17=
PLAYORDER=
